<?xml version="1.0" encoding="utf-8"?>
<!-- Generator: Adobe Illustrator 16.0.4, SVG Export Plug-In . SVG Version: 6.00 Build 0)  -->
<!DOCTYPE svg PUBLIC "-//W3C//DTD SVG 1.1//EN" "http://www.w3.org/Graphics/SVG/1.1/DTD/svg11.dtd">
<svg version="1.1" id="Layer_1" xmlns="http://www.w3.org/2000/svg" xmlns:xlink="http://www.w3.org/1999/xlink" x="0px" y="0px"
	 width="266.893px" height="266.895px" viewBox="-15.5 16.5 266.893 266.895" enable-background="new -15.5 16.5 266.893 266.895"
	 xml:space="preserve">
<g id="White">
</g>
<g id="Blue">
	<path id="Blue_1_" fill="#3B5998" d="M236.663,283.395c8.134,0,14.729-6.596,14.729-14.729V31.23
		c0-8.137-6.596-14.729-14.729-14.729H-0.77C-8.907,16.5-15.5,23.094-15.5,31.23v237.435c0,8.135,6.593,14.729,14.729,14.729
		L236.663,283.395L236.663,283.395z"/>
	<path id="f" fill="#FFFFFF" d="M168.651,283.395V180.039h34.693l5.194-40.28h-39.888v-25.717c0-11.662,3.238-19.609,19.962-19.609
		l21.33-0.01V58.397c-3.689-0.489-16.351-1.587-31.081-1.587c-30.752,0-51.806,18.771-51.806,53.244v29.705H92.275v40.28h34.781
		v103.354L168.651,283.395L168.651,283.395z"/>
</g>
</svg>
