<?xml version="1.0" encoding="utf-8"?>
<!-- Generator: Adobe Illustrator 16.0.4, SVG Export Plug-In . SVG Version: 6.00 Build 0)  -->
<!DOCTYPE svg PUBLIC "-//W3C//DTD SVG 1.1//EN" "http://www.w3.org/Graphics/SVG/1.1/DTD/svg11.dtd">
<svg version="1.1" id="Layer_1" xmlns="http://www.w3.org/2000/svg" xmlns:xlink="http://www.w3.org/1999/xlink" x="0px" y="0px"
	 width="435.403px" height="435.4px" viewBox="0 0 435.403 435.4" enable-background="new 0 0 435.403 435.4" xml:space="preserve">
<g>
	<linearGradient id="SVGID_1_" gradientUnits="userSpaceOnUse" x1="203.9106" y1="227.4668" x2="203.9106" y2="329.0293">
		<stop  offset="0" style="stop-color:#F6871F"/>
		<stop  offset="0.2051" style="stop-color:#F58120"/>
		<stop  offset="0.5378" style="stop-color:#F37021"/>
		<stop  offset="0.9544" style="stop-color:#F04E23"/>
		<stop  offset="1" style="stop-color:#F04923"/>
	</linearGradient>
	<polygon fill="url(#SVGID_1_)" points="203.911,278.252 203.911,278.248 203.91,278.261 	"/>
	<linearGradient id="SVGID_2_" gradientUnits="userSpaceOnUse" x1="180.1567" y1="94.7651" x2="180.1567" y2="283.8478">
		<stop  offset="0" style="stop-color:#F6871F"/>
		<stop  offset="0.2051" style="stop-color:#F58120"/>
		<stop  offset="0.5378" style="stop-color:#F37021"/>
		<stop  offset="0.9544" style="stop-color:#F04E23"/>
		<stop  offset="1" style="stop-color:#F04923"/>
	</linearGradient>
	<path fill="url(#SVGID_2_)" d="M187.754,233.819l-2.582-92.964c-0.062-2.871-2.326-5.126-5.153-5.126
		c-2.835,0-5.101,2.257-5.155,5.135l-2.304,92.95l2.306,44.726c0.053,2.849,2.318,5.099,5.153,5.099c2.827,0,5.091-2.25,5.153-5.131
		v0.037L187.754,233.819z"/>
	<linearGradient id="SVGID_3_" gradientUnits="userSpaceOnUse" x1="161.9468" y1="94.7651" x2="161.9468" y2="283.8479">
		<stop  offset="0" style="stop-color:#F6871F"/>
		<stop  offset="0.2051" style="stop-color:#F58120"/>
		<stop  offset="0.5378" style="stop-color:#F37021"/>
		<stop  offset="0.9544" style="stop-color:#F04E23"/>
		<stop  offset="1" style="stop-color:#F04923"/>
	</linearGradient>
	<path fill="url(#SVGID_3_)" d="M169.411,233.811l-2.838-96.479c-0.071-2.666-2.17-4.753-4.781-4.753
		c-2.622,0-4.724,2.09-4.785,4.758l-2.524,96.474l2.527,45.009c0.059,2.643,2.16,4.737,4.782,4.737c2.611,0,4.71-2.095,4.781-4.76
		v0.031L169.411,233.811z"/>
	<linearGradient id="SVGID_4_" gradientUnits="userSpaceOnUse" x1="203.9116" y1="85.7417" x2="203.9116" y2="241.9917">
		<stop  offset="0" style="stop-color:#F6871F"/>
		<stop  offset="0.2051" style="stop-color:#F58120"/>
		<stop  offset="0.5378" style="stop-color:#F37021"/>
		<stop  offset="0.9544" style="stop-color:#F04E23"/>
		<stop  offset="1" style="stop-color:#F04923"/>
	</linearGradient>
	<polygon fill="url(#SVGID_4_)" points="203.912,278.24 203.912,278.229 203.912,278.231 203.911,278.248 	"/>
	<linearGradient id="SVGID_5_" gradientUnits="userSpaceOnUse" x1="203.9106" y1="215.748" x2="203.9106" y2="340.748">
		<stop  offset="0" style="stop-color:#F6871F"/>
		<stop  offset="0.2051" style="stop-color:#F58120"/>
		<stop  offset="0.5378" style="stop-color:#F37021"/>
		<stop  offset="0.9544" style="stop-color:#F04E23"/>
		<stop  offset="1" style="stop-color:#F04923"/>
	</linearGradient>
	<polygon fill="url(#SVGID_5_)" points="203.911,278.248 203.911,278.252 203.91,278.264 	"/>
	<linearGradient id="SVGID_6_" gradientUnits="userSpaceOnUse" x1="129.7979" y1="94.3516" x2="129.7978" y2="283.8585">
		<stop  offset="0" style="stop-color:#F6871F"/>
		<stop  offset="0.2051" style="stop-color:#F58120"/>
		<stop  offset="0.5378" style="stop-color:#F37021"/>
		<stop  offset="0.9544" style="stop-color:#F04E23"/>
		<stop  offset="1" style="stop-color:#F04923"/>
	</linearGradient>
	<polygon fill="url(#SVGID_6_)" points="129.799,279.505 129.799,279.506 129.797,279.532 	"/>
	<linearGradient id="SVGID_7_" gradientUnits="userSpaceOnUse" x1="125.9482" y1="94.7646" x2="125.9482" y2="283.848">
		<stop  offset="0" style="stop-color:#F6871F"/>
		<stop  offset="0.2051" style="stop-color:#F58120"/>
		<stop  offset="0.5378" style="stop-color:#F37021"/>
		<stop  offset="0.9544" style="stop-color:#F04E23"/>
		<stop  offset="1" style="stop-color:#F04923"/>
	</linearGradient>
	<path fill="url(#SVGID_7_)" d="M129.799,138.022c-0.09-2.25-1.863-4.011-4.04-4.011c-2.189,0-3.964,1.764-4.042,4.013
		c0,0.003-2.963,95.772-2.963,95.772l2.965,45.727c0.076,2.228,1.851,3.987,4.04,3.987c2.177,0,3.95-1.755,4.04-4.005l3.344-45.709
		L129.799,138.022z"/>
	<linearGradient id="SVGID_8_" gradientUnits="userSpaceOnUse" x1="148.1143" y1="94.3364" x2="148.1142" y2="283.8591">
		<stop  offset="0" style="stop-color:#F6871F"/>
		<stop  offset="0.2051" style="stop-color:#F58120"/>
		<stop  offset="0.5378" style="stop-color:#F37021"/>
		<stop  offset="0.9544" style="stop-color:#F04E23"/>
		<stop  offset="1" style="stop-color:#F04923"/>
	</linearGradient>
	<polygon fill="url(#SVGID_8_)" points="148.115,279.222 148.115,279.225 148.113,279.248 	"/>
	<linearGradient id="SVGID_9_" gradientUnits="userSpaceOnUse" x1="143.8779" y1="94.7646" x2="143.8779" y2="283.8492">
		<stop  offset="0" style="stop-color:#F6871F"/>
		<stop  offset="0.2051" style="stop-color:#F58120"/>
		<stop  offset="0.5378" style="stop-color:#F37021"/>
		<stop  offset="0.9544" style="stop-color:#F04E23"/>
		<stop  offset="1" style="stop-color:#F04923"/>
	</linearGradient>
	<path fill="url(#SVGID_9_)" d="M148.115,134.801c-0.078-2.46-2.014-4.385-4.41-4.385c-2.404,0-4.342,1.928-4.412,4.388
		l-2.744,98.997l2.746,45.443c0.068,2.434,2.006,4.357,4.41,4.357c2.396,0,4.33-1.924,4.41-4.377l3.092-45.419L148.115,134.801z"/>
	<linearGradient id="SVGID_10_" gradientUnits="userSpaceOnUse" x1="55.6372" y1="94.7656" x2="55.6372" y2="283.8487">
		<stop  offset="0" style="stop-color:#F6871F"/>
		<stop  offset="0.2051" style="stop-color:#F58120"/>
		<stop  offset="0.5378" style="stop-color:#F37021"/>
		<stop  offset="0.9544" style="stop-color:#F04E23"/>
		<stop  offset="1" style="stop-color:#F04923"/>
	</linearGradient>
	<path fill="url(#SVGID_10_)" d="M55.379,282.376c1.332,0,2.43-1.079,2.551-2.504l4.363-46.117l-4.363-47.677
		c-0.121-1.425-1.219-2.502-2.551-2.502c-1.35,0-2.449,1.079-2.557,2.511l-3.841,47.668l3.841,46.117
		C52.93,281.297,54.029,282.376,55.379,282.376z"/>
	<linearGradient id="SVGID_11_" gradientUnits="userSpaceOnUse" x1="198.5063" y1="94.7646" x2="198.5063" y2="283.8493">
		<stop  offset="0" style="stop-color:#F6871F"/>
		<stop  offset="0.2051" style="stop-color:#F58120"/>
		<stop  offset="0.5378" style="stop-color:#F37021"/>
		<stop  offset="0.9544" style="stop-color:#F04E23"/>
		<stop  offset="1" style="stop-color:#F04923"/>
	</linearGradient>
	<path fill="url(#SVGID_11_)" d="M206.239,233.828l-2.327-110.619c-0.033-1.896-1.013-3.571-2.475-4.562
		c-0.878-0.595-1.929-0.942-3.053-0.942c-1.093,0-2.114,0.332-2.977,0.896c-1.504,0.983-2.519,2.683-2.549,4.612l-0.02,1.043
		l-2.066,109.536c0,0.066,2.086,44.464,2.086,44.464c0.001,0.063,0.009,0.126,0.013,0.188c0.062,1.241,0.533,2.385,1.286,3.285
		c1.018,1.219,2.54,2,4.227,2c1.498,0,2.867-0.617,3.867-1.614c1-0.994,1.631-2.368,1.66-3.885l0.23-4.395L206.239,233.828z"/>
	<linearGradient id="SVGID_12_" gradientUnits="userSpaceOnUse" x1="73.0034" y1="94.7646" x2="73.0034" y2="283.849">
		<stop  offset="0" style="stop-color:#F6871F"/>
		<stop  offset="0.2051" style="stop-color:#F58120"/>
		<stop  offset="0.5378" style="stop-color:#F37021"/>
		<stop  offset="0.9544" style="stop-color:#F04E23"/>
		<stop  offset="1" style="stop-color:#F04923"/>
	</linearGradient>
	<path fill="url(#SVGID_12_)" d="M75.687,189.522c-0.112-1.63-1.37-2.869-2.925-2.869c-1.569,0-2.826,1.241-2.924,2.888
		l-3.625,44.219l3.625,46.495c0.098,1.638,1.354,2.881,2.924,2.881c1.554,0,2.811-1.241,2.925-2.883l4.107-46.493L75.687,189.522z"
		/>
	<linearGradient id="SVGID_13_" gradientUnits="userSpaceOnUse" x1="90.5117" y1="94.7646" x2="90.5117" y2="283.8486">
		<stop  offset="0" style="stop-color:#F6871F"/>
		<stop  offset="0.2051" style="stop-color:#F58120"/>
		<stop  offset="0.5378" style="stop-color:#F37021"/>
		<stop  offset="0.9544" style="stop-color:#F04E23"/>
		<stop  offset="1" style="stop-color:#F04923"/>
	</linearGradient>
	<path fill="url(#SVGID_13_)" d="M90.289,158.572c-1.759,0-3.208,1.434-3.297,3.263c0,0.002-3.404,71.942-3.404,71.942l3.404,46.492
		c0.089,1.814,1.538,3.25,3.297,3.25c1.744,0,3.191-1.436,3.295-3.26v0.014l3.852-46.496l-3.852-71.945
		C93.48,160.004,92.033,158.572,90.289,158.572z"/>
	<linearGradient id="SVGID_14_" gradientUnits="userSpaceOnUse" x1="107.8896" y1="94.7646" x2="107.8896" y2="283.8486">
		<stop  offset="0" style="stop-color:#F6871F"/>
		<stop  offset="0.2051" style="stop-color:#F58120"/>
		<stop  offset="0.5378" style="stop-color:#F37021"/>
		<stop  offset="0.9544" style="stop-color:#F04E23"/>
		<stop  offset="1" style="stop-color:#F04923"/>
	</linearGradient>
	<path fill="url(#SVGID_14_)" d="M111.35,280.215l-0.002,0.025l3.602-46.212l-3.6-88.395c-0.094-2.04-1.705-3.636-3.666-3.636
		c-1.975,0-3.586,1.596-3.672,3.636c0,0.005-3.182,88.395-3.182,88.395l3.186,46.203c0.082,2.021,1.693,3.617,3.668,3.617
		C109.645,283.849,111.256,282.253,111.35,280.215z"/>
	<linearGradient id="SVGID_15_" gradientUnits="userSpaceOnUse" x1="75.687" y1="245.0947" x2="75.687" y2="315.4072">
		<stop  offset="0" style="stop-color:#F6871F"/>
		<stop  offset="0.2051" style="stop-color:#F58120"/>
		<stop  offset="0.5378" style="stop-color:#F37021"/>
		<stop  offset="0.9544" style="stop-color:#F04E23"/>
		<stop  offset="1" style="stop-color:#F04923"/>
	</linearGradient>
	<polygon fill="url(#SVGID_15_)" points="75.688,280.251 75.687,280.253 75.687,280.26 	"/>
	<linearGradient id="SVGID_16_" gradientUnits="userSpaceOnUse" x1="216.772" y1="94.7651" x2="216.772" y2="283.8492">
		<stop  offset="0" style="stop-color:#F6871F"/>
		<stop  offset="0.2051" style="stop-color:#F58120"/>
		<stop  offset="0.5378" style="stop-color:#F37021"/>
		<stop  offset="0.9544" style="stop-color:#F04E23"/>
		<stop  offset="1" style="stop-color:#F04923"/>
	</linearGradient>
	<path fill="url(#SVGID_16_)" d="M219.673,108.159c-0.882-0.534-1.907-0.847-3-0.847c-1.406,0-2.703,0.505-3.721,1.346
		c-1.309,1.08-2.156,2.713-2.18,4.536l-0.012,0.607l-2.406,120.037l1.227,22.188l1.192,21.595c0.042,3.196,2.687,5.835,5.9,5.835
		c3.203,0,5.848-2.639,5.893-5.881v0.05l0,0l2.625-43.787v-0.002l-2.625-120.651C222.536,111.055,221.375,109.188,219.673,108.159z"
		/>
	<linearGradient id="SVGID_17_" gradientUnits="userSpaceOnUse" x1="5.2212" y1="94.7646" x2="5.2212" y2="283.8488">
		<stop  offset="0" style="stop-color:#F6871F"/>
		<stop  offset="0.2051" style="stop-color:#F58120"/>
		<stop  offset="0.5378" style="stop-color:#F37021"/>
		<stop  offset="0.9544" style="stop-color:#F04E23"/>
		<stop  offset="1" style="stop-color:#F04923"/>
	</linearGradient>
	<path fill="url(#SVGID_17_)" d="M4.93,259.211c0.883,0,1.598-0.693,1.742-1.691l3.771-23.778l-3.771-24.189
		c-0.143-0.997-0.859-1.694-1.742-1.694c-0.908,0-1.626,0.702-1.746,1.703L0,233.741l3.184,23.769
		C3.304,258.511,4.021,259.211,4.93,259.211z"/>
	<linearGradient id="SVGID_18_" gradientUnits="userSpaceOnUse" x1="21.3213" y1="94.7637" x2="21.3213" y2="283.8496">
		<stop  offset="0" style="stop-color:#F6871F"/>
		<stop  offset="0.2051" style="stop-color:#F58120"/>
		<stop  offset="0.5378" style="stop-color:#F37021"/>
		<stop  offset="0.9544" style="stop-color:#F04E23"/>
		<stop  offset="1" style="stop-color:#F04923"/>
	</linearGradient>
	<path fill="url(#SVGID_18_)" d="M21.027,273.744c0.918,0,1.66-0.724,1.807-1.757l4.873-38.246l-4.871-39.102
		c-0.148-1.038-0.891-1.758-1.809-1.758c-0.925,0-1.687,0.74-1.811,1.76c0,0.004-4.281,39.1-4.281,39.1l4.281,38.237
		C19.341,273.002,20.103,273.744,21.027,273.744z"/>
	<linearGradient id="SVGID_19_" gradientUnits="userSpaceOnUse" x1="38.4082" y1="94.7656" x2="38.4082" y2="283.8483">
		<stop  offset="0" style="stop-color:#F6871F"/>
		<stop  offset="0.2051" style="stop-color:#F58120"/>
		<stop  offset="0.5378" style="stop-color:#F37021"/>
		<stop  offset="0.9544" style="stop-color:#F04E23"/>
		<stop  offset="1" style="stop-color:#F04923"/>
	</linearGradient>
	<path fill="url(#SVGID_19_)" d="M38.133,280.584c1.129,0,2.045-0.896,2.179-2.131l4.618-44.708l-4.615-46.395
		c-0.137-1.239-1.053-2.135-2.182-2.135c-1.15,0-2.068,0.898-2.184,2.137c0,0.003-4.062,46.393-4.062,46.393l4.062,44.699
		C36.064,279.688,36.982,280.584,38.133,280.584z"/>
	<linearGradient id="SVGID_20_" gradientUnits="userSpaceOnUse" x1="331.5107" y1="94.7646" x2="331.5107" y2="283.5854">
		<stop  offset="0" style="stop-color:#F7941E"/>
		<stop  offset="0" style="stop-color:#F78E1E"/>
		<stop  offset="0" style="stop-color:#F6871F"/>
		<stop  offset="0.2058" style="stop-color:#F58120"/>
		<stop  offset="0.5413" style="stop-color:#F36F21"/>
		<stop  offset="0.9627" style="stop-color:#F04D23"/>
		<stop  offset="1" style="stop-color:#F04923"/>
	</linearGradient>
	<path fill="url(#SVGID_20_)" d="M381.853,176.731c-7.338,0-14.34,1.487-20.715,4.158c-4.262-48.263-44.734-86.125-94.105-86.125
		c-12.082,0-23.857,2.375-34.26,6.399c-4.043,1.566-5.115,3.171-5.154,6.297c0,0.002,0,169.974,0,169.974
		c0.043,3.277,2.586,5.825,5.785,6.145c0.137,0.015,148.449,0,148.449,0c29.576,0,53.551-23.709,53.551-53.29
		S411.429,176.731,381.853,176.731z"/>
	<path fill="#F04923" d="M42.758,315.803c-6.281-1.476-7.975-2.265-7.975-4.752c0-1.75,1.412-3.563,5.653-3.563
		c3.622,0,6.451,1.476,8.994,4.075l5.718-5.545c-3.737-3.897-8.261-6.221-14.426-6.221c-7.809,0-14.141,4.415-14.141,11.602
		c0,7.8,5.091,10.122,12.387,11.812c7.467,1.699,8.824,2.837,8.824,5.38c0,2.999-2.211,4.3-6.904,4.3
		c-3.789,0-7.348-1.301-10.125-4.529l-5.713,5.092c2.999,4.412,8.771,7.183,15.386,7.183c10.804,0,15.558-5.087,15.558-12.612
		C55.994,319.423,49.038,317.275,42.758,315.803z M79.195,299.797c-10.803,0-17.194,8.367-17.194,20.422s6.392,20.417,17.194,20.417
		c10.8,0,17.195-8.362,17.195-20.417S89.995,299.797,79.195,299.797z M79.195,332.773c-6.395,0-9.054-5.484-9.054-12.555
		c0-7.074,2.659-12.556,9.054-12.556c6.393,0,9.047,5.481,9.047,12.556C88.242,327.289,85.588,332.773,79.195,332.773z
		 M128.346,322.65c0,6.333-3.11,10.24-8.141,10.24c-5.035,0-8.091-4.018-8.091-10.35v-22.124h-7.919v22.233
		c0,11.538,6.451,17.985,16.01,17.985c10.064,0,16.06-6.623,16.06-18.095v-22.124h-7.919V322.65z M170.434,317.164
		c0,2.205,0.11,7.183,0.11,8.657c-0.507-1.019-1.81-3.005-2.769-4.476l-14.034-20.929h-7.578v39.599h7.809v-17.424
		c0-2.205-0.116-7.182-0.116-8.654c0.514,1.017,1.814,2.996,2.77,4.473l14.541,21.605h7.075v-39.599h-7.808V317.164z
		 M200.804,300.417h-12.382v39.599h11.819c10.181,0,20.255-5.886,20.255-19.797C220.496,305.733,212.119,300.417,200.804,300.417z
		 M200.241,332.323h-3.905v-24.208h4.191c8.371,0,11.822,4.008,11.822,12.104C212.35,327.461,208.557,332.323,200.241,332.323z
		 M244.986,307.663c3.562,0,5.828,1.583,7.241,4.295l7.347-3.396c-2.486-5.146-7.01-8.766-14.477-8.766
		c-10.347,0-17.587,8.367-17.587,20.422c0,12.498,6.946,20.417,17.306,20.417c7.186,0,11.935-3.337,14.651-8.939l-6.677-3.963
		c-2.091,3.511-4.187,5.04-7.749,5.04c-5.943,0-9.396-5.434-9.396-12.555C235.646,312.868,239.052,307.663,244.986,307.663z
		 M274.359,300.417h-7.924v39.599h23.81v-7.807h-15.886V300.417z M311.102,299.797c-10.809,0-17.196,8.367-17.196,20.422
		s6.388,20.417,17.196,20.417c10.802,0,17.198-8.362,17.198-20.417S321.903,299.797,311.102,299.797z M311.102,332.773
		c-6.396,0-9.055-5.484-9.055-12.555c0-7.074,2.658-12.556,9.055-12.556c6.387,0,9.041,5.481,9.041,12.556
		C320.143,327.289,317.488,332.773,311.102,332.773z M360.255,322.65c0,6.333-3.102,10.24-8.138,10.24
		c-5.039,0-8.094-4.018-8.094-10.35v-22.124h-7.92v22.233c0,11.538,6.452,17.985,16.014,17.985c10.065,0,16.065-6.623,16.065-18.095
		v-22.124h-7.928V322.65z M390.467,300.417h-12.391v39.599h11.815c10.198,0,20.255-5.886,20.255-19.797
		C410.146,305.733,401.783,300.417,390.467,300.417z M389.892,332.323h-3.896v-24.208h4.186c8.363,0,11.815,4.008,11.815,12.104
		C401.997,327.461,398.213,332.323,389.892,332.323z"/>
</g>
</svg>
