<?xml version="1.0" encoding="utf-8"?>
<!-- Generator: Adobe Illustrator 16.0.4, SVG Export Plug-In . SVG Version: 6.00 Build 0)  -->
<!DOCTYPE svg PUBLIC "-//W3C//DTD SVG 1.1//EN" "http://www.w3.org/Graphics/SVG/1.1/DTD/svg11.dtd">
<svg version="1.1" id="YouTube_Logo" xmlns="http://www.w3.org/2000/svg" xmlns:xlink="http://www.w3.org/1999/xlink" x="0px"
	 y="0px" width="501.02px" height="501.02px" viewBox="120.634 6.528 501.02 501.02"
	 enable-background="new 120.634 6.528 501.02 501.02" xml:space="preserve">
<linearGradient id="lozenge_1_" gradientUnits="userSpaceOnUse" x1="762.3496" y1="-50.4233" x2="762.3496" y2="-259.5015" gradientTransform="matrix(1 0 0 -1 -290 102.0762)">
	<stop  offset="0" style="stop-color:#E32E28"/>
	<stop  offset="1" style="stop-color:#BE2126"/>
</linearGradient>
<path id="lozenge_2_" fill="url(#lozenge_1_)" d="M618.673,197.604c0,0-2.918-20.485-11.87-29.506
	c-11.354-11.839-24.084-11.898-29.921-12.591c-41.786-3.007-104.465-3.007-104.465-3.007h-0.131c0,0-62.682,0-104.467,3.007
	c-5.838,0.692-18.562,0.752-29.92,12.591c-8.953,9.021-11.867,29.506-11.867,29.506s-2.986,24.055-2.986,48.112v22.553
	c0,24.055,2.986,48.109,2.986,48.109s2.914,20.484,11.867,29.506c11.356,11.842,26.28,11.465,32.926,12.705
	c23.889,2.283,101.525,2.988,101.525,2.988s62.745-0.094,104.53-3.1c5.836-0.693,18.566-0.752,29.92-12.596
	c8.953-9.02,11.871-29.506,11.871-29.506s2.982-24.055,2.982-48.107v-22.555C621.655,221.659,618.673,197.604,618.673,197.604z"/>
<g id="You">
	<path id="u_2_" d="M307.632,321.696h-18.999v-11c-7.203,8.256-13.31,12.426-19.966,12.426c-5.84,0-9.896-2.756-11.926-7.732
		c-1.233-3.025-2.108-7.752-2.108-14.693v-80h19v75c0,4.242,0,6,0,7c0.442,2.807,1.635,3.832,4.051,3.832
		c3.637,0,6.928-3.16,10.949-8.832v-77h18.999V321.696z"/>
	<path id="o_2_" d="M240.633,253.695c0-10.793-2.168-18.898-6-24c-5.062-6.908-13-9.736-21-9.736c-9.056,0-15.946,2.828-21,9.736
		c-3.894,5.102-5.981,13.294-5.981,24.089l-0.019,35.912c0,10.73,1.856,18.146,5.75,23.201c5.054,6.887,13.25,10.535,21.25,10.535
		s16.339-3.648,21.399-10.535c3.832-5.055,5.601-12.471,5.601-23.201V253.695z M221.633,291.696c1,10-2.103,14.961-8.001,14.961
		c-5.899,0-8.999-4.961-7.999-14.961v-40.001c-1-10,2.1-14.687,8-14.687c5.899,0,9.01,4.687,8.01,14.687L221.633,291.696z"/>
	<path id="y_2_" d="M165.633,266.696v55h-20v-55c0,0-20.726-67.432-25-80.001h21l14.034,52.675l13.966-52.675h21L165.633,266.696z"
		/>
</g>
<g id="Tube">
	<path id="e_1_" fill="#FFFFFF" d="M596.667,274.696l-0.004-20.443c0-10.68-2.104-18.493-5.889-23.547
		c-5.074-6.838-12.283-10.457-21.365-10.457c-9.242,0-16.451,3.619-21.688,10.457c-3.846,5.055-6.09,13.311-6.09,23.991v35
		c0,10.619,2.467,18.053,6.312,23.053c5.233,6.828,12.442,10.236,21.914,10.236c9.459,0,16.889-3.576,21.896-10.832
		c2.201-3.203,3.623-6.834,4.234-10.848c0.162-1.812,0.643-5.941,0.643-11.775v-2.834h-18.999c0,7.264,0.032,11.582-0.136,12.568
		c-1.033,4.84-3.631,7.264-8.088,7.264c-6.215,0-8.84-4.646-8.777-13.873v-17.959H596.667L596.667,274.696z M560.632,248.654
		c0-9.346,2.562-11.895,8.609-11.895c6.002,0,8.391,2.777,8.391,12.02v10.917l-17,0.02V248.654z"/>
	<path id="b_1_" fill="#FFFFFF" d="M512.739,220.091c-6.66,0-13.28,4.096-19.128,11.292l0.021-43.688h-18v134.001h18l0.025-10.068
		c6.049,7.484,12.645,11.357,19.082,11.357c7.209,0,12.477-3.859,14.893-11.289c1.209-4.236,2-10.758,2-20v-40.001
		c0-9.465-1.213-15.936-2.422-19.956C524.794,224.255,519.948,220.091,512.739,220.091z M510.632,292.696
		c0,10-2.356,13.832-7.577,13.832c-2.98,0-6.415-1.535-9.442-4.562l0.021-60.646c3.027-2.988,6.441-4.561,9.423-4.561
		c5.221,0,7.577,2.936,7.577,12.936L510.632,292.696L510.632,292.696z"/>
	<path id="u_1_" fill="#FFFFFF" d="M460.632,321.696h-19v-11c-7.202,8.256-13.309,12.426-19.965,12.426
		c-5.84,0-9.896-2.756-11.926-7.732c-1.234-3.025-2.109-7.752-2.109-14.693v-79h19v74c0,4.242,0,6,0,7
		c0.443,2.807,1.636,3.832,4.052,3.832c3.637,0,6.928-3.16,10.948-8.832v-76h19V321.696z"/>
	<polygon id="T" fill="#FFFFFF" points="388.632,321.696 368.632,321.696 368.632,206.695 347.632,206.695 347.632,187.716 
		410.632,187.695 410.632,206.695 388.632,206.695 	"/>
</g>
</svg>
